<?xml version="1.0" encoding="UTF-8" standalone="no"?>
<!DOCTYPE svg PUBLIC "-//W3C//DTD SVG 1.1//EN" "http://www.w3.org/Graphics/SVG/1.1/DTD/svg11.dtd">
<svg width="100%" height="100%" viewBox="0 0 300 390" version="1.1" xmlns="http://www.w3.org/2000/svg" xmlns:xlink="http://www.w3.org/1999/xlink" xml:space="preserve" xmlns:serif="http://www.serif.com/" style="fill-rule:evenodd;clip-rule:evenodd;stroke-linejoin:round;stroke-miterlimit:2;">
    <g transform="matrix(1,0,0,1,-100,-55)">
        <g transform="matrix(0.987482,0,0,0.975,-3.685593,6.25)">
            <path d="M393.306,272.215C389.497,296.943 379.432,319.619 364.779,338.572C362.387,341.667 359.872,344.663 357.242,347.552L370.491,370.491L347.552,357.242C344.663,359.872 341.667,362.387 338.572,364.779C319.619,379.432 296.943,389.497 272.215,393.306L274.403,382.796C294.572,379.107 313.181,370.931 329.156,359.341C332.356,357.019 335.45,354.56 338.431,351.973C343.257,347.784 347.784,343.257 351.973,338.431C354.56,335.45 357.019,332.356 359.341,329.156C370.931,313.181 379.107,294.572 382.796,274.403L393.306,272.215Z" style="fill:rgb(36,51,82);"/>
            <path d="M272.215,106.694C296.943,110.503 319.619,120.568 338.572,135.221C341.667,137.613 344.663,140.128 347.552,142.758L370.491,129.509L357.242,152.448C359.872,155.337 362.387,158.333 364.779,161.428C379.432,180.381 389.497,203.057 393.306,227.785C393.847,231.301 394.262,234.859 394.546,238.454L384.314,236.323C383.95,232.704 383.442,229.126 382.796,225.597C379.107,205.428 370.931,186.819 359.341,170.844C357.019,167.644 354.56,164.55 351.973,161.569C347.784,156.743 343.257,152.216 338.431,148.027C335.45,145.44 332.356,142.981 329.156,140.659C313.181,129.069 294.572,120.893 274.403,117.204L272.215,106.694Z" style="fill:rgb(121,177,184);"/>
            <path d="M105.454,261.546C105.153,257.737 105,253.886 105,250C105,246.114 105.153,242.263 105.454,238.454C105.738,234.859 106.153,231.301 106.694,227.785C110.503,203.057 120.568,180.381 135.221,161.428C137.613,158.333 140.128,155.337 142.758,152.448L129.509,129.509L152.448,142.758C155.337,140.128 158.333,137.613 161.428,135.221C180.381,120.568 203.057,110.503 227.785,106.694L225.597,117.204C205.428,120.893 186.819,129.069 170.844,140.659C167.644,142.981 164.55,145.44 161.569,148.027C156.743,152.216 152.216,156.743 148.027,161.569C145.44,164.55 142.981,167.644 140.659,170.844C129.069,186.819 120.893,205.428 117.204,225.597C116.558,229.126 116.05,232.704 115.686,236.323C115.232,240.821 115,245.384 115,250C115,254.616 115.232,259.179 115.686,263.677C116.05,267.296 116.558,270.874 117.204,274.403C120.893,294.572 129.069,313.181 140.659,329.156C142.981,332.356 145.44,335.45 148.027,338.431C152.216,343.257 156.743,347.784 161.569,351.973C164.55,354.56 167.644,357.019 170.844,359.341C186.819,370.931 205.428,379.107 225.597,382.796L227.785,393.306C203.057,389.497 180.381,379.432 161.428,364.779C158.333,362.387 155.337,359.872 152.448,357.242L129.509,370.491L142.758,347.552C140.128,344.663 137.613,341.667 135.221,338.572C120.568,319.619 110.503,296.943 106.694,272.215C106.153,268.699 105.738,265.141 105.454,261.546Z" style="fill:rgb(36,51,82);"/>
            <path d="M164,341C161.905,339.2 158.698,335.695 157.053,333.859C156.377,333.109 156.002,332.13 156.002,331.115C156,315.85 156,193.062 156,170.13C156,167.86 157.223,165.771 159.189,164.681C161.048,163.65 163.306,162.399 164.75,161.598C165.561,161.149 166.577,161.444 167.029,162.26C174.562,175.849 231.692,278.907 231.692,278.907C231.692,278.907 225.053,211.272 222.931,189.655C222.505,185.309 222.741,180.922 223.63,176.648C229.175,150.017 250,50 250,50L250,450C250,450 231.781,345.115 226.441,314.372C225.478,308.83 223.597,303.494 220.877,298.587C208.923,277.022 175,215.827 175,215.827L175,348.153C175,348.32 174.909,348.474 174.764,348.552C174.618,348.631 174.442,348.622 174.305,348.528C172.319,347.174 166.594,343.229 164,341Z" style="fill:rgb(121,177,184);"/>
            <path d="M250,246.537C250,246.537 264.353,257.457 273.171,264.166C277.383,267.37 279.757,272.477 279.511,277.807C279.033,288.206 278.244,305.351 277.892,313.004C277.772,315.599 277.446,318.181 276.917,320.723C272.383,342.499 250,450 250,450L250,246.537Z" style="fill:rgb(36,51,82);"/>
            <path d="M250,50L277.712,183.097C277.712,183.097 280.736,200.624 282.382,202.209C299.733,218.914 354.022,245.13 354.022,245.13L408.803,252.119L374.973,261.431C373.009,263.694 374.22,296.569 346.682,326.278C312.6,363.759 281.994,363.748 279.431,365.973L282.712,348.903C349.597,321.658 360.177,274.752 295.031,249.494C289.838,247.48 275.6,241.09 265.65,231.193C255.678,221.273 250,207.848 250,207.848L250,50Z" style="fill:rgb(36,51,82);"/>
        </g>
    </g>
</svg>
