<?xml version="1.0" encoding="UTF-8" standalone="no"?>
<!DOCTYPE svg PUBLIC "-//W3C//DTD SVG 1.1//EN" "http://www.w3.org/Graphics/SVG/1.1/DTD/svg11.dtd">
<svg width="100%" height="100%" viewBox="0 0 576 263" version="1.1" xmlns="http://www.w3.org/2000/svg" xmlns:xlink="http://www.w3.org/1999/xlink" xml:space="preserve" xmlns:serif="http://www.serif.com/" style="fill-rule:evenodd;clip-rule:evenodd;stroke-linecap:round;stroke-linejoin:round;stroke-miterlimit:1.5;">
    <g transform="matrix(1,0,0,1,-213.313372,-108)">
        <g transform="matrix(0.664145,0,0,0.65575,143.578164,75.2125)">
            <path d="M393.306,272.215C389.497,296.943 379.432,319.619 364.779,338.572C362.387,341.667 359.872,344.663 357.242,347.552L370.491,370.491L347.552,357.242C344.663,359.872 341.667,362.387 338.572,364.779C319.619,379.432 296.943,389.497 272.215,393.306L274.403,382.796C294.572,379.107 313.181,370.931 329.156,359.341C332.356,357.019 335.45,354.56 338.431,351.973C343.257,347.784 347.784,343.257 351.973,338.431C354.56,335.45 357.019,332.356 359.341,329.156C370.931,313.181 379.107,294.572 382.796,274.403L393.306,272.215Z" style="fill:white;"/>
            <path d="M272.215,106.694C296.943,110.503 319.619,120.568 338.572,135.221C341.667,137.613 344.663,140.128 347.552,142.758L370.491,129.509L357.242,152.448C359.872,155.337 362.387,158.333 364.779,161.428C379.432,180.381 389.497,203.057 393.306,227.785C393.847,231.301 394.262,234.859 394.546,238.454L384.314,236.323C383.95,232.704 383.442,229.126 382.796,225.597C379.107,205.428 370.931,186.819 359.341,170.844C357.019,167.644 354.56,164.55 351.973,161.569C347.784,156.743 343.257,152.216 338.431,148.027C335.45,145.44 332.356,142.981 329.156,140.659C313.181,129.069 294.572,120.893 274.403,117.204L272.215,106.694Z" style="fill:rgb(121,177,184);"/>
            <path d="M105.454,261.546C105.153,257.737 105,253.886 105,250C105,246.114 105.153,242.263 105.454,238.454C105.738,234.859 106.153,231.301 106.694,227.785C110.503,203.057 120.568,180.381 135.221,161.428C137.613,158.333 140.128,155.337 142.758,152.448L129.509,129.509L152.448,142.758C155.337,140.128 158.333,137.613 161.428,135.221C180.381,120.568 203.057,110.503 227.785,106.694L225.597,117.204C205.428,120.893 186.819,129.069 170.844,140.659C167.644,142.981 164.55,145.44 161.569,148.027C156.743,152.216 152.216,156.743 148.027,161.569C145.44,164.55 142.981,167.644 140.659,170.844C129.069,186.819 120.893,205.428 117.204,225.597C116.558,229.126 116.05,232.704 115.686,236.323C115.232,240.821 115,245.384 115,250C115,254.616 115.232,259.179 115.686,263.677C116.05,267.296 116.558,270.874 117.204,274.403C120.893,294.572 129.069,313.181 140.659,329.156C142.981,332.356 145.44,335.45 148.027,338.431C152.216,343.257 156.743,347.784 161.569,351.973C164.55,354.56 167.644,357.019 170.844,359.341C186.819,370.931 205.428,379.107 225.597,382.796L227.785,393.306C203.057,389.497 180.381,379.432 161.428,364.779C158.333,362.387 155.337,359.872 152.448,357.242L129.509,370.491L142.758,347.552C140.128,344.663 137.613,341.667 135.221,338.572C120.568,319.619 110.503,296.943 106.694,272.215C106.153,268.699 105.738,265.141 105.454,261.546Z" style="fill:white;"/>
            <path d="M164,341C162.118,339.383 159.339,336.391 157.6,334.468C156.575,333.348 156.005,331.878 156.005,330.35C156,312.601 156,198.395 156,171.922C156,168.547 157.818,165.441 160.741,163.821C161.894,163.181 163.072,162.528 164.038,161.993C165.243,161.325 166.754,161.764 167.427,162.977C176.369,179.107 231.692,278.907 231.692,278.907C231.692,278.907 225.638,217.232 223.245,192.848C222.611,186.386 222.961,179.863 224.284,173.508C230.642,142.973 250,50 250,50L250,450C250,450 233.223,353.416 227.149,318.448C225.718,310.208 222.921,302.273 218.877,294.978C205.539,270.919 175,215.827 175,215.827L175,347.74C175,347.988 174.865,348.217 174.648,348.334C174.431,348.45 174.168,348.436 173.965,348.297C171.731,346.768 166.459,343.113 164,341Z" style="fill:rgb(121,177,184);"/>
            <path d="M250,246.537C250,246.537 261.202,255.06 269.893,261.672C276.156,266.436 279.685,274.03 279.321,281.954C278.848,292.221 278.211,306.059 277.9,312.829C277.775,315.541 277.434,318.238 276.881,320.894C272.267,343.057 250,450 250,450L250,246.537Z" style="fill:white;"/>
            <path d="M250,50L277.712,183.097C277.712,183.097 280.736,200.624 282.382,202.209C299.733,218.914 354.022,245.13 354.022,245.13L408.803,252.119L374.973,261.431C373.009,263.694 374.22,296.569 346.682,326.278C312.6,363.759 281.994,363.748 279.431,365.973L282.712,348.903C349.597,321.658 360.177,274.752 295.031,249.494C289.838,247.48 275.6,241.09 265.65,231.193C255.678,221.273 250,207.848 250,207.848L250,50Z" style="fill:white;"/>
        </g>
        <g transform="matrix(1,0,0,1,119,44)">
            <g transform="matrix(2.96,0,0,1.098901,-937.08,-9.989011)">
                <path d="M428.981,210.268L428.981,133.158L432.743,133.158L450.43,198.038L450.43,133.158L453.673,133.158L453.673,210.268L449.911,210.268L432.224,145.156L432.224,210.268L428.981,210.268Z" style="fill:white;fill-rule:nonzero;"/>
                <path d="M459.857,142.244L459.857,130.829L463.359,130.829L463.359,142.244L459.857,142.244ZM459.986,210.268L459.986,152.028L463.23,152.028L463.23,210.268L459.986,210.268Z" style="fill:white;fill-rule:nonzero;"/>
                <path d="M471.186,210.268L471.186,159.716L466.776,159.716L466.776,152.028L471.186,152.028L471.186,131.178L474.43,131.178L474.43,152.028L479.403,152.028L479.403,159.716L474.43,159.716L474.43,210.268L471.186,210.268Z" style="fill:white;fill-rule:nonzero;"/>
                <path d="M491.641,211.2C489.536,211.2 487.698,209.86 486.127,207.181C484.556,204.502 483.338,200.872 482.473,196.29C481.608,191.709 481.176,186.661 481.176,181.148C481.176,175.557 481.608,170.49 482.473,165.947C483.338,161.405 484.556,157.794 486.127,155.115C487.698,152.436 489.536,151.096 491.641,151.096C493.428,151.096 494.963,152.028 496.246,153.892C497.529,155.755 498.574,158.279 499.381,161.463L499.381,152.028L502.624,152.028L502.624,210.268L499.381,210.268L499.381,200.95C498.574,204.056 497.529,206.541 496.246,208.404C494.963,210.268 493.428,211.2 491.641,211.2ZM492.073,203.279C493.687,203.279 495.05,202.27 496.159,200.251C497.269,198.232 498.113,195.533 498.689,192.155C499.266,188.777 499.554,185.108 499.554,181.148C499.554,177.11 499.266,173.421 498.689,170.082C498.113,166.743 497.269,164.064 496.159,162.045C495.05,160.026 493.687,159.017 492.073,159.017C490.487,159.017 489.118,160.026 487.965,162.045C486.812,164.064 485.932,166.743 485.327,170.082C484.722,173.421 484.419,177.11 484.419,181.148C484.419,185.108 484.722,188.777 485.327,192.155C485.932,195.533 486.812,198.232 487.965,200.251C489.118,202.27 490.487,203.279 492.073,203.279Z" style="fill:white;fill-rule:nonzero;"/>
                <path d="M508.246,210.268L508.246,152.028L511.489,152.028L511.489,166.355C511.605,165.346 511.828,164.006 512.159,162.336C512.491,160.667 512.974,158.978 513.608,157.27C514.242,155.561 515.042,154.105 516.008,152.902C516.974,151.698 518.12,151.096 519.446,151.096L519.662,151.096L519.662,159.832L519.273,159.832C517.659,159.832 516.268,161.016 515.1,163.385C513.932,165.753 513.039,168.821 512.419,172.587C511.799,176.353 511.489,180.371 511.489,184.642L511.489,210.268L508.246,210.268Z" style="fill:white;fill-rule:nonzero;"/>
                <path d="M531.727,211.2C529.623,211.2 527.785,209.86 526.214,207.181C524.642,204.502 523.424,200.872 522.559,196.29C521.695,191.709 521.262,186.661 521.262,181.148C521.262,175.557 521.695,170.49 522.559,165.947C523.424,161.405 524.642,157.794 526.214,155.115C527.785,152.436 529.623,151.096 531.727,151.096C533.514,151.096 535.05,152.028 536.332,153.892C537.615,155.755 538.66,158.279 539.468,161.463L539.468,152.028L542.711,152.028L542.711,210.268L539.468,210.268L539.468,200.95C538.66,204.056 537.615,206.541 536.332,208.404C535.05,210.268 533.514,211.2 531.727,211.2ZM532.159,203.279C533.774,203.279 535.136,202.27 536.246,200.251C537.356,198.232 538.199,195.533 538.776,192.155C539.352,188.777 539.641,185.108 539.641,181.148C539.641,177.11 539.352,173.421 538.776,170.082C538.199,166.743 537.356,164.064 536.246,162.045C535.136,160.026 533.774,159.017 532.159,159.017C530.574,159.017 529.205,160.026 528.051,162.045C526.898,164.064 526.019,166.743 525.414,170.082C524.808,173.421 524.505,177.11 524.505,181.148C524.505,185.108 524.808,188.777 525.414,192.155C526.019,195.533 526.898,198.232 528.051,200.251C529.205,202.27 530.574,203.279 532.159,203.279Z" style="fill:white;fill-rule:nonzero;"/>
            </g>
            <g transform="matrix(0.530504,0,0,0.42957,174.535809,108.615385)">
                <path d="M471.446,347.779C468.819,347.779 466.688,347.34 465.052,346.463C463.417,345.586 462.191,344.369 461.373,342.813C460.555,341.257 460.079,339.502 459.945,337.549L463.082,337.549C463.162,339.138 463.591,340.421 464.369,341.397C465.146,342.374 466.172,343.094 467.445,343.558C468.719,344.021 470.119,344.253 471.647,344.253C473.899,344.253 475.682,343.765 476.996,342.788C478.309,341.811 478.966,340.363 478.966,338.443C478.966,337.284 478.638,336.348 477.981,335.637C477.324,334.925 476.453,334.337 475.367,333.874C474.281,333.41 473.095,332.988 471.808,332.607C470.521,332.227 469.228,331.821 467.928,331.391C466.628,330.96 465.435,330.414 464.349,329.752C463.263,329.09 462.392,328.237 461.735,327.194C461.078,326.151 460.75,324.819 460.75,323.196C460.75,320.515 461.587,318.329 463.263,316.641C464.939,314.952 467.438,314.108 470.763,314.108C473.122,314.108 475.066,314.547 476.594,315.424C478.122,316.302 479.268,317.452 480.032,318.876C480.796,320.299 481.218,321.839 481.299,323.494L478.202,323.494C478.041,321.839 477.371,320.44 476.192,319.298C475.012,318.156 473.202,317.584 470.763,317.584C469.261,317.584 468.042,317.767 467.103,318.131C466.165,318.495 465.448,318.967 464.952,319.546C464.456,320.126 464.121,320.73 463.947,321.359C463.772,321.988 463.685,322.584 463.685,323.147C463.685,324.239 464.014,325.125 464.67,325.804C465.327,326.482 466.199,327.045 467.284,327.492C468.37,327.939 469.57,328.345 470.883,328.709C472.197,329.073 473.504,329.479 474.804,329.926C476.104,330.372 477.297,330.935 478.383,331.614C479.469,332.293 480.34,333.162 480.997,334.221C481.654,335.281 481.982,336.638 481.982,338.294C481.982,341.339 481.044,343.682 479.167,345.321C477.291,346.96 474.717,347.779 471.446,347.779Z" style="fill:white;fill-rule:nonzero;"/>
                <path d="M496.298,347.382L496.298,314.505L515.882,314.505L515.882,318.081L499.314,318.081L499.314,329.106L514.113,329.106L514.113,332.731L499.314,332.731L499.314,343.806L515.882,343.806L515.882,347.382L496.298,347.382Z" style="fill:white;fill-rule:nonzero;"/>
                <path d="M541.096,347.779C538.442,347.779 536.15,347.026 534.219,345.519C532.289,344.013 530.808,341.985 529.776,339.436C528.744,336.886 528.228,334.056 528.228,330.944C528.228,327.831 528.744,325.001 529.776,322.451C530.808,319.902 532.289,317.874 534.219,316.368C536.15,314.861 538.442,314.108 541.096,314.108C543.107,314.108 544.916,314.547 546.525,315.424C548.133,316.302 549.5,317.502 550.626,319.025C551.752,320.548 552.597,322.319 553.16,324.339L549.983,324.339C549.313,322.319 548.254,320.713 546.806,319.521C545.359,318.329 543.536,317.733 541.337,317.733C539.192,317.733 537.363,318.321 535.848,319.496C534.333,320.672 533.187,322.253 532.41,324.239C531.632,326.226 531.244,328.46 531.244,330.944C531.244,333.394 531.632,335.62 532.41,337.623C533.187,339.626 534.333,341.215 535.848,342.391C537.363,343.566 539.192,344.154 541.337,344.154C543.536,344.154 545.359,343.558 546.806,342.366C548.254,341.174 549.313,339.568 549.983,337.549L553.16,337.549C552.597,339.535 551.752,341.298 550.626,342.838C549.5,344.377 548.133,345.586 546.525,346.463C544.916,347.34 543.107,347.779 541.096,347.779Z" style="fill:white;fill-rule:nonzero;"/>
                <path d="M578.293,347.779C576.095,347.779 574.145,347.175 572.442,345.966C570.74,344.758 569.406,343.061 568.441,340.876C567.476,338.691 566.993,336.142 566.993,333.228L566.993,314.505L570.009,314.505L570.009,333.327C570.009,335.877 570.405,337.946 571.196,339.535C571.986,341.124 573.019,342.291 574.292,343.036C575.565,343.781 576.899,344.154 578.293,344.154C579.714,344.154 581.055,343.781 582.315,343.036C583.575,342.291 584.607,341.124 585.411,339.535C586.215,337.946 586.617,335.877 586.617,333.327L586.617,314.505L589.633,314.505L589.633,333.228C589.633,336.108 589.151,338.641 588.186,340.826C587.221,343.011 585.887,344.717 584.184,345.942C582.482,347.167 580.518,347.779 578.293,347.779Z" style="fill:white;fill-rule:nonzero;"/>
                <path d="M605.477,347.382L605.477,314.505L618.225,314.505C620.96,314.505 623.138,315.432 624.76,317.287C626.382,319.141 627.193,321.64 627.193,324.785C627.193,326.904 626.864,328.593 626.207,329.851C625.551,331.109 624.726,332.061 623.734,332.707C622.742,333.352 621.75,333.824 620.759,334.122L627.756,347.382L624.177,347.382L617.743,334.768L608.493,334.768L608.493,347.382L605.477,347.382ZM608.493,331.242L617.702,331.242C618.667,331.242 619.646,331.059 620.638,330.695C621.63,330.331 622.468,329.677 623.151,328.734C623.835,327.79 624.177,326.474 624.177,324.785C624.177,322.7 623.6,321.053 622.447,319.844C621.295,318.636 619.767,318.031 617.863,318.031L608.493,318.031L608.493,331.242Z" style="fill:white;fill-rule:nonzero;"/>
                <rect x="642.031" y="314.505" width="3.016" height="32.876" style="fill:white;fill-rule:nonzero;"/>
                <path d="M667.808,347.382L667.808,318.031L658.519,318.031L658.519,314.505L680.113,314.505L680.113,318.031L670.824,318.031L670.824,347.382L667.808,347.382Z" style="fill:white;fill-rule:nonzero;"/>
                <rect x="693.585" y="314.505" width="3.016" height="32.876" style="fill:white;fill-rule:nonzero;"/>
                <path d="M712.767,347.382L712.767,314.505L732.351,314.505L732.351,318.081L715.783,318.081L715.783,329.106L730.581,329.106L730.581,332.731L715.783,332.731L715.783,343.806L732.351,343.806L732.351,347.382L712.767,347.382Z" style="fill:white;fill-rule:nonzero;"/>
                <path d="M756.398,347.779C753.771,347.779 751.64,347.34 750.004,346.463C748.369,345.586 747.142,344.369 746.325,342.813C745.507,341.257 745.031,339.502 744.897,337.549L748.034,337.549C748.114,339.138 748.543,340.421 749.321,341.397C750.098,342.374 751.123,343.094 752.397,343.558C753.67,344.021 755.071,344.253 756.599,344.253C758.851,344.253 760.634,343.765 761.948,342.788C763.261,341.811 763.918,340.363 763.918,338.443C763.918,337.284 763.59,336.348 762.933,335.637C762.276,334.925 761.405,334.337 760.319,333.874C759.233,333.41 758.047,332.988 756.76,332.607C755.473,332.227 754.18,331.821 752.879,331.391C751.579,330.96 750.386,330.414 749.3,329.752C748.215,329.09 747.343,328.237 746.687,327.194C746.03,326.151 745.701,324.819 745.701,323.196C745.701,320.515 746.539,318.329 748.215,316.641C749.89,314.952 752.39,314.108 755.714,314.108C758.074,314.108 760.017,314.547 761.545,315.424C763.073,316.302 764.22,317.452 764.984,318.876C765.748,320.299 766.17,321.839 766.25,323.494L763.154,323.494C762.993,321.839 762.323,320.44 761.143,319.298C759.964,318.156 758.154,317.584 755.714,317.584C754.213,317.584 752.993,317.767 752.055,318.131C751.117,318.495 750.4,318.967 749.904,319.546C749.408,320.126 749.073,320.73 748.898,321.359C748.724,321.988 748.637,322.584 748.637,323.147C748.637,324.239 748.965,325.125 749.622,325.804C750.279,326.482 751.15,327.045 752.236,327.492C753.322,327.939 754.521,328.345 755.835,328.709C757.149,329.073 758.456,329.479 759.756,329.926C761.056,330.372 762.249,330.935 763.335,331.614C764.421,332.293 765.292,333.162 765.949,334.221C766.606,335.281 766.934,336.638 766.934,338.294C766.934,341.339 765.996,343.682 764.119,345.321C762.242,346.96 759.669,347.779 756.398,347.779Z" style="fill:white;fill-rule:nonzero;"/>
            </g>
            <g transform="matrix(1,0,0,1,-88,-43)">
                <path d="M426,294L488,294" style="fill:none;stroke:rgb(229,194,0);stroke-width:2.67px;"/>
            </g>
            <g transform="matrix(1,0,0,1,174,-42.433085)">
                <path d="M426,294L488,294" style="fill:none;stroke:rgb(229,194,0);stroke-width:2.67px;"/>
            </g>
        </g>
    </g>
</svg>
